<?xml version="1.0" standalone="no"?>
<!DOCTYPE svg PUBLIC "-//W3C//DTD SVG 1.1//EN" "http://www.w3.org/Graphics/SVG/1.1/DTD/svg11.dtd" >
<svg xmlns="http://www.w3.org/2000/svg">
<metadata></metadata>
<defs>
<font id="zawgyi-oneregular" horiz-adv-x="0" >
<font-face units-per-em="2048" ascent="1638" descent="-410" />
<missing-glyph horiz-adv-x="640" />
<glyph horiz-adv-x="2048" />
<glyph horiz-adv-x="2048" />
<glyph unicode="&#xd;" horiz-adv-x="640" />
<glyph unicode=" "  horiz-adv-x="640" />
<glyph unicode="&#x09;" horiz-adv-x="640" />
<glyph unicode="&#xa0;" horiz-adv-x="640" />
<glyph unicode="&#x1000;" horiz-adv-x="2217" d="M-4 535q0 251 156.5 405t410.5 154q305 0 481 -260q173 260 480 260q250 0 407.5 -155t157.5 -404q0 -248 -158.5 -405.5t-406.5 -157.5q-74 0 -148 18q6 55 31 170q86 -15 117 -15q174 0 285.5 108.5t111.5 281.5q0 165 -114.5 278t-282.5 113q-172 0 -280.5 -109.5 t-108.5 -281.5v-27h-11q-16 -309 -364 -504l-78 143q270 158 270 388q0 170 -110.5 280.5t-278.5 110.5q-172 0 -284.5 -110.5t-112.5 -280.5q0 -234 287 -388l-84 -147l-74 41q-299 160 -299 494z" />
<glyph unicode="&#x1001;" horiz-adv-x="1247" d="M35 762q205 362 530 362q248 0 406.5 -156.5t158.5 -402.5q0 -248 -158.5 -404.5t-406.5 -156.5q-289 0 -442 211q-76 107 -76 176q0 98 78 156q72 53 174 53q225 0 346 -197q60 -96 72 -202q241 112 241 364q0 170 -111.5 280.5t-281.5 110.5q-223 0 -381 -274zM219 393 q0 -10 6 -24q27 -37 45 -68q113 -125 295 -125h23q-4 117 -81 188.5t-194 71.5q-94 0 -94 -43z" />
<glyph unicode="&#x1002;" horiz-adv-x="1247" d="M-4 508q0 246 159.5 403.5t407.5 157.5q242 0 398.5 -158.5t156.5 -402.5q0 -361 -321 -508l-109 129q264 160 264 379q0 164 -112.5 276.5t-276.5 112.5q-172 0 -284.5 -110.5t-112.5 -278.5q0 -219 264 -375l-117 -129l-49 25q-268 133 -268 479z" />
<glyph unicode="&#x1003;" horiz-adv-x="2217" d="M-4 563q0 127 84 234q37 26 215 172l-25 12q-30 0 -94 -53l-84 164q74 55 213 55q74 0 132.5 -52.5t58.5 -125.5q0 -76 -103 -154q-18 -18 -149 -110q-62 -68 -62 -142q0 -168 108.5 -274.5t274.5 -106.5t275.5 106.5t109.5 274.5q0 223 -280 377l86 160l80 -43 q278 -150 299 -457h2v-35q0 -166 108.5 -273.5t276.5 -107.5q166 0 274.5 107.5t108.5 273.5q0 164 -109.5 271.5t-273.5 107.5q-56 0 -152 -31l12 197q99 14 140 14q250 0 408.5 -154.5t158.5 -404.5t-158.5 -405.5t-408.5 -155.5q-305 0 -478 254q-174 -258 -479 -258 q-248 0 -408.5 157.5t-160.5 405.5z" />
<glyph unicode="&#x1004;" horiz-adv-x="1247" d="M4 565q0 248 156.5 403.5t404.5 155.5q328 0 529 -362l-144 -80q-157 274 -385 274q-170 0 -279.5 -110.5t-109.5 -280.5t109.5 -279.5t279.5 -109.5q228 0 385 273l144 -80l-37 -80q-60 -129 -205 -211q-137 -74 -287 -74q-248 0 -404.5 156.5t-156.5 404.5z" />
<glyph unicode="&#x1005;" horiz-adv-x="1247" d="M-4 563q0 244 157.5 401.5t403.5 157.5t403.5 -156.5t157.5 -402.5t-158.5 -404.5t-402.5 -158.5q-246 0 -403.5 158.5t-157.5 404.5zM166 563q0 -112 61 -209q88 78 111 215q-12 136 -86 234q-86 -111 -86 -240zM326 244q104 -74 231 -74q170 0 282.5 111.5t112.5 281.5 q0 168 -112.5 278.5t-282.5 110.5q-106 0 -201 -55q125 -137 127 -334q-20 -194 -157 -319z" />
<glyph unicode="&#x1006;" horiz-adv-x="2217" d="M47 762q195 362 524 362q310 0 480 -254q168 254 473 254q250 0 407.5 -154.5t157.5 -404.5q0 -248 -158.5 -404.5t-406.5 -156.5q-279 0 -455 227l-20 27q-170 -254 -478 -254q-288 0 -438 211q-78 109 -78 176q0 98 78 156q70 53 172 53q230 0 350 -194q58 -95 64 -205 q246 112 246 364q0 170 -112 280.5t-282 110.5q-225 0 -376 -274zM225 393q4 -8 49 -92q115 -125 297 -125h19q-4 113 -79 186.5t-187 73.5q-99 0 -99 -43zM1135 565q0 -170 109.5 -279.5t279.5 -109.5q174 0 285.5 108.5t111.5 280.5q0 166 -114.5 278.5t-282.5 112.5 q-172 0 -280.5 -109.5t-108.5 -281.5z" />
<glyph unicode="&#x1007;" horiz-adv-x="1247" d="M4 563q0 244 156.5 401.5t402.5 157.5q262 0 417 -145.5t155 -407.5q0 -61 -41 -190q-25 -27 -76 -41q0 -43 8 -57q12 -31 53 -41l99 -25l-84 -135q-50 10 -129 49q-43 23 -77 79t-34 105v29l-68 20q-84 17 -143 103q-57 78 -61 168q-11 174 135 293q-92 26 -154 26 q-168 0 -277.5 -111.5t-109.5 -277.5q0 -168 103.5 -277.5t271.5 -109.5q74 0 184 21l25 -166q-98 -31 -197 -31q-246 0 -402.5 158.5t-156.5 404.5zM731 651q-2 -84 72 -131q63 -45 149 -41q13 68 13 115q0 164 -136 266q-96 -88 -98 -209z" />
<glyph unicode="&#x1008;" horiz-adv-x="1564" d="M-4 563q0 244 157.5 401.5t403.5 157.5t403.5 -156.5t157.5 -402.5t-158.5 -404.5t-402.5 -158.5q-246 0 -403.5 158.5t-157.5 404.5zM166 563q0 -112 61 -209q88 78 111 215q-12 136 -86 234q-86 -111 -86 -240zM326 244q104 -74 231 -74q170 0 282.5 111.5t112.5 281.5 q0 168 -112.5 278.5t-282.5 110.5q-106 0 -201 -55q125 -137 127 -334q-20 -194 -157 -319zM517 100h168v-681l563 -55v1758h170v-1853q0 -92 -46 -97.5t-718 73.5q-131 28 -135 125l-2 90v640z" />
<glyph unicode="&#x1009;" horiz-adv-x="1241" d="M4 -546l2 902l23 4l149 82q160 -272 387 -272q172 0 281.5 109.5t109.5 283.5q0 168 -110.5 280.5t-280.5 112.5q-227 0 -387 -274l-147 80q209 362 534 362q248 0 406.5 -157.5t158.5 -403.5q0 -252 -157.5 -409.5t-407.5 -157.5q-213 0 -383 149v-685q0 -117 107 -117 h1491q57 0 73 12q31 15 31 64v151h178v-147q0 -147 -67 -201q-47 -35 -99 -45q-32 -6 -120 -6h-1489q-285 0 -283 283z" />
<glyph unicode="&#x100a;" horiz-adv-x="2187" d="M0 258l121 86l45 41l4 -4l8 12v-24q162 -203 357 -203q170 0 280.5 99.5t110.5 266.5v62q0 164 -113 261t-278 97q-222 0 -383 -266l-148 86l43 76q152 274 488 274q249 0 407 -157.5t158 -407.5v-31q0 -168 112.5 -265t280.5 -97q172 0 284.5 109.5t112.5 283.5 q0 168 -113.5 281.5t-283.5 113.5q-72 0 -221 -55l-55 160l79 30q80 31 197 31q248 0 406.5 -157.5t158.5 -403.5t-160.5 -406.5t-404.5 -160.5q-311 0 -481 266q-170 -262 -477 -262q-195 0 -357 123v-657q0 -117 109 -117h1489q104 0 104 76v151h178v-147 q0 -252 -284 -252h-1487q-287 0 -287 283v804z" />
<glyph unicode="&#x100b;" horiz-adv-x="1216" d="M0 563q0 250 155.5 405.5t407.5 155.5q328 0 531 -362l-150 -86q-156 280 -381 280q-168 0 -277.5 -113.5t-109.5 -279.5q0 -172 108.5 -282.5t278.5 -110.5h31q8 -4 20 -4q80 37 234 78q221 10 221 -185q0 -83 -39 -136l-123 -105q-108 -67 -360 -67h-6q-127 0 -215 49 q-13 -6 -13 -15q0 -43 238 -90q207 -8 455 121q14 6 30 6q54 0 58 -86q-2 -24 -2 -135v-237q0 -56 45 -50h98l-2 -161h-182q-123 0 -123 143v287q-107 -62 -295 -62q-51 0 -117 13q-197 36 -248 69q-159 55 -159 195q0 73 48 123.5t124 50.5q41 0 94 -21q33 0 172 -28 q276 0 338 118q8 8 12 14q0 17 -27 17q-28 0 -135 -54q-200 -24 -231 -24q-232 0 -373 172q-131 160 -131 397z" />
<glyph unicode="&#x100c;" horiz-adv-x="1222" d="M4 563q0 246 156.5 403.5t404.5 157.5q328 0 529 -362l-144 -80q-157 274 -385 274q-170 0 -279.5 -112.5t-109.5 -280.5q0 -170 109.5 -281.5t279.5 -111.5q228 0 385 272l142 -80v-964q2 -14 2 -28q0 -78 -59.5 -138.5t-137.5 -60.5h-664q-227 0 -227 199v4 q0 209 238 209h57l25 -166q-119 0 -148 -41q2 -14 23 -27q41 -10 86 -10h524q115 0 115 115v669q-166 -127 -361 -127q-248 0 -404.5 159.5t-156.5 407.5z" />
<glyph unicode="&#x100d;" horiz-adv-x="1222" d="M0 762q205 362 535 362q249 0 403 -155.5t154 -405.5q0 -264 -146 -420q-151 -163 -411 -147q-31 4 -175 22q-108 54 -139 54q-33 0 -14 -31q61 -118 344 -118h2q82 0 172 16q127 23 152 49q75 30 112 30q98 0 103 -153v-503q0 -35 43 -29h98v-162h-182q-125 0 -125 141 v506q-199 -74 -373 -69q-313 6 -487 174q-41 53 -41 136q0 193 219 185q45 -4 129 -47q41 -23 106 -31q17 0 19 4h37q170 0 280.5 111.5t110.5 281.5q0 166 -113 279.5t-278 113.5q-234 0 -388 -274z" />
<glyph unicode="&#x100e;" horiz-adv-x="1247" d="M-4 563q0 131 84 230q37 43 190 159q13 11 19 17h-8l2 -4l6 16l-31 14q-41 0 -98 -45l-51 137q75 60 190 60q63 0 121.5 -54.5t58.5 -117.5q0 -76 -98 -152q-12 -14 -148 -116q-67 -68 -67 -144q0 -174 111.5 -283.5t285.5 -109.5q166 0 277.5 112.5t111.5 280.5 q0 230 -278 389l76 142l77 -37q291 -139 291 -494q0 -248 -154.5 -405.5t-400.5 -157.5q-248 0 -407.5 157.5t-159.5 405.5z" />
<glyph unicode="&#x100f;" horiz-adv-x="2455" d="M-4 565q0 252 157.5 405.5t411.5 153.5q246 0 422 -186q60 111 174 111q111 0 178 -111q168 186 418 186q256 0 414 -151.5t158 -407.5q0 -327 -363 -530l-86 147q281 156 281 383q0 176 -114 283.5t-290 107.5q-166 0 -276.5 -111.5t-110.5 -279.5v-86h-2v-196 q0 -93 -58.5 -158.5t-148.5 -65.5q-94 0 -149.5 64.5t-55.5 159.5v329q-20 154 -127.5 249t-263.5 95q-174 0 -286.5 -109.5t-112.5 -281.5q0 -233 287 -383l-84 -151l-74 41q-299 159 -299 493zM1124 283q0 -56 37 -56q35 0 35 56v540q0 54 -35 54q-37 0 -37 -54v-540z" />
<glyph unicode="&#x1010;" horiz-adv-x="2217" d="M-4 565q0 252 156.5 405.5t410.5 153.5q305 0 481 -260q173 260 480 260q250 0 407.5 -154.5t157.5 -404.5q0 -248 -158.5 -404.5t-406.5 -156.5q-113 0 -242 55l64 154q116 -37 178 -37q174 0 285.5 108.5t111.5 280.5q0 166 -114.5 278.5t-282.5 112.5 q-172 0 -280.5 -109.5t-108.5 -281.5v-18l-5 -6q-12 -246 -166.5 -391.5t-400.5 -145.5q-248 0 -407.5 156.5t-159.5 404.5zM166 565q0 -170 112.5 -279.5t284.5 -109.5q168 0 278.5 109.5t110.5 279.5t-110.5 280.5t-278.5 110.5q-172 0 -284.5 -110.5t-112.5 -280.5z" />
<glyph unicode="&#x1011;" horiz-adv-x="2217" d="M-4 565q0 252 156.5 405.5t410.5 153.5q305 0 481 -260q173 260 480 260q250 0 407.5 -154.5t157.5 -404.5q0 -248 -158.5 -404.5t-406.5 -156.5q-307 0 -480 264q-174 -264 -481 -264q-248 0 -407.5 156.5t-159.5 404.5zM166 565q0 -170 112.5 -279.5t284.5 -109.5 q168 0 278.5 109.5t110.5 279.5t-110.5 280.5t-278.5 110.5q-172 0 -284.5 -110.5t-112.5 -280.5zM1135 565q0 -170 109.5 -279.5t279.5 -109.5q174 0 285.5 108.5t111.5 280.5q0 166 -114.5 278.5t-282.5 112.5q-172 0 -280.5 -109.5t-108.5 -281.5z" />
<glyph unicode="&#x1012;" horiz-adv-x="1198" d="M10 317l168 39q4 -77 55 -116q95 -70 265 -70q387 0 399 154q12 133 -264 135q-23 2 -64 0v2h-16l4 166h98q213 0 242 159q-27 166 -399 166q-242 0 -310 -141q-8 -14 -8 -27q0 -22 39 -22h37l-16 -156h-21q-209 0 -209 197q0 164 172 252q133 67 316 67q528 0 571 -323 v-6q0 -148 -119 -242q135 -90 119 -246q-31 -305 -571 -305q-158 0 -297 55q-181 72 -189 209z" />
<glyph unicode="&#x1013;" horiz-adv-x="1247" d="M-4 563q0 244 160.5 401.5t406.5 157.5q244 0 399.5 -157.5t155.5 -401.5q0 -246 -156.5 -404.5t-398.5 -158.5q-252 0 -409.5 155.5t-157.5 407.5zM166 563q0 -131 74 -233q129 137 323 159q193 0 334 -129q55 93 55 203q0 166 -111.5 277.5t-277.5 111.5 q-172 0 -284.5 -110.5t-112.5 -278.5zM348 231q101 -61 215 -61q125 0 236 86q-94 72 -234 86q-135 -18 -217 -111z" />
<glyph unicode="&#x1014;" horiz-adv-x="1247" d="M4 215q-28 320 328 320q123 0 210 -63.5t103 -182.5v-125q295 0 295 115q0 100 -211 198q-102 45 -326 154q-188 88 -188 254q0 237 336 237q96 0 180 -30q152 -56 152 -177q0 -22 -29 -45h-168q19 23 19 37q0 8 -7 21q-22 12 -147 24q-25 2 -45 2q-119 0 -119 -75 q0 -68 148 -129q120 -50 208 -88q375 -168 375 -392q0 -270 -473 -276l6 -821l-172 -2v823q-225 -4 -303 22q-160 47 -172 199zM176 231q6 -77 303 -67q-4 135 -30 162q-39 36 -119 36q-64 0 -109 -34q-51 -37 -45 -97z" />
<glyph unicode="&#x1015;" horiz-adv-x="1247" d="M-4 563q0 346 328 506l106 -129q-264 -162 -264 -377q0 -174 111.5 -283.5t285.5 -109.5q166 0 277.5 112.5t111.5 280.5q0 211 -264 375l117 125l49 -25q264 -131 264 -475q0 -248 -154.5 -405.5t-400.5 -157.5q-252 0 -409.5 155.5t-157.5 407.5z" />
<glyph unicode="&#x1016;" horiz-adv-x="1247" d="M-4 563q0 346 328 506l106 -131q-264 -164 -264 -375q0 -174 111.5 -283.5t285.5 -109.5q260 0 359 246q-252 14 -353 211q-53 100 -53 202q0 105 51 177q60 79 162 79q55 0 125 -47q264 -174 264 -475q0 -248 -154.5 -405.5t-400.5 -157.5q-248 0 -407.5 157.5 t-159.5 405.5zM676 811q0 -61 43 -149q88 -115 233 -115v16q0 195 -204 338q-15 8 -23 8q-49 0 -49 -98z" />
<glyph unicode="&#x1017;" horiz-adv-x="1247" d="M6 563q0 320 320 500l28 -12l27 -56v-8l4 -6q76 -96 180 -96q129 0 191 139l22 49h27l49 -29q276 -155 276 -481q0 -252 -157.5 -407.5t-407.5 -155.5q-248 0 -403.5 157.5t-155.5 405.5zM176 563q0 -168 111.5 -280.5t277.5 -112.5q172 0 282.5 109.5t110.5 283.5 q0 182 -143 303q-67 -112 -227 -123q-189 -12 -275 111q-137 -115 -137 -291z" />
<glyph unicode="&#x1018;" horiz-adv-x="2217" d="M35 344l147 90q158 -268 381 -268q162 0 275 94q118 102 118 262v66q0 164 -113.5 264t-279.5 100q-188 0 -362 -221l-140 109q224 278 502 278q305 0 479 -258q170 262 480 262q250 0 408.5 -155.5t158.5 -403.5q0 -254 -157.5 -408.5t-409.5 -154.5q-105 0 -197 35 l-78 26l56 160q149 -51 219 -51q172 0 285.5 109.5t113.5 283.5q0 168 -114.5 278.5t-284.5 110.5t-279 -96q-113 -102 -113 -268v-25q0 -252 -158.5 -409.5t-408.5 -157.5q-327 0 -485 274z" />
<glyph unicode="&#x1019;" horiz-adv-x="1247" d="M-4 563q0 346 328 506l106 -129q-264 -162 -264 -377q0 -131 74 -233q135 145 323 153q185 4 334 -127q55 95 55 207q0 211 -264 375l117 125l49 -25q264 -131 264 -475q0 -248 -154.5 -405.5t-400.5 -157.5q-252 0 -409.5 155.5t-157.5 407.5zM348 231q101 -61 215 -61 q125 0 236 86q-94 76 -234 86q-135 -18 -217 -111z" />
<glyph unicode="&#x101a;" horiz-adv-x="2217" d="M-4 565q0 334 299 496l74 39l84 -148q-287 -155 -287 -387q0 -170 112.5 -279.5t284.5 -109.5q168 0 278.5 109.5t110.5 279.5q0 228 -270 387l78 142q348 -197 364 -500h11v-29q0 -170 109.5 -279.5t279.5 -109.5q174 0 285.5 108.5t111.5 280.5q0 166 -114.5 278.5 t-282.5 112.5q-31 0 -117 -18q-25 115 -31 168q74 18 148 18q250 0 407.5 -154.5t157.5 -404.5q0 -248 -158.5 -404.5t-406.5 -156.5q-307 0 -480 264q-174 -264 -481 -264q-248 0 -407.5 156.5t-159.5 404.5z" />
<glyph unicode="&#x101b;" horiz-adv-x="1247" d="M6 563q0 246 158 403.5t405 157.5q246 0 406 -157.5t160 -403.5v-1224h110v-168h-203q-84 0 -84 98v1294q0 168 -110.5 280.5t-278.5 112.5q-170 0 -280.5 -112.5t-110.5 -280.5v-12q62 18 135 18q183 0 318 -104q147 -113 147 -289q0 -186 -182 -186q-35 0 -64 6 q-247 16 -386.5 167.5t-139.5 399.5zM209 422q8 -35 35 -68q137 -194 291 -194q36 0 55 16l16 12v13q0 116 -125 184q-106 59 -229 51z" />
<glyph unicode="&#x101c;" horiz-adv-x="2217" d="M-4 563q0 246 159.5 402.5t407.5 156.5q250 0 408.5 -155.5t158.5 -403.5q0 -174 111 -283.5t283 -109.5q170 0 283.5 111.5t113.5 281.5q0 168 -113.5 278.5t-283.5 110.5q-58 0 -181 -43l13 191q86 22 168 22q248 0 406.5 -156.5t158.5 -402.5q0 -252 -157.5 -407.5 t-407.5 -155.5q-262 0 -417 150.5t-155 412.5q0 168 -110.5 278.5t-278.5 110.5t-282.5 -111.5t-114.5 -277.5q0 -184 114.5 -298.5t297.5 -104.5l-27 -170l-84 16q-213 39 -342 189.5t-129 367.5z" />
<glyph unicode="&#x101d;" horiz-adv-x="1247" d="M-4 563q0 244 160.5 401.5t406.5 157.5q244 0 399.5 -157.5t155.5 -401.5q0 -246 -156.5 -404.5t-398.5 -158.5q-252 0 -409.5 155.5t-157.5 407.5zM166 563q0 -174 111.5 -283.5t285.5 -109.5q166 0 277.5 112.5t111.5 280.5q0 166 -111.5 277.5t-277.5 111.5 q-172 0 -284.5 -110.5t-112.5 -278.5z" />
<glyph unicode="&#x101e;" horiz-adv-x="2217" d="M35 774l43 74q158 274 485 274q250 0 408.5 -155.5t158.5 -403.5v-31q0 -165 115 -268q109 -98 277 -98q172 0 285.5 111.5t113.5 285.5q0 168 -114.5 278.5t-284.5 110.5q-70 0 -219 -55l-56 164l78 26q84 31 197 31q256 0 411.5 -150.5t155.5 -404.5 q0 -252 -158.5 -409.5t-408.5 -157.5q-310 0 -480 262q-174 -258 -479 -258q-278 0 -502 283l140 104q174 -217 362 -217q168 0 280.5 98.5t112.5 266.5v61q0 162 -118 262q-113 94 -275 94q-223 0 -381 -264z" />
<glyph unicode="&#x101f;" horiz-adv-x="2217" d="M-4 563q0 352 330 510l104 -135q-264 -164 -264 -375q0 -170 112.5 -281.5t284.5 -111.5q389 0 389 393v49q-18 181 -254 326l111 131l51 -31q111 -65 184 -172q173 256 478 256q245 0 405 -156.5t160 -402.5q0 -248 -160 -407.5t-405 -159.5q-74 0 -148 20q8 58 31 172 q84 -22 117 -22q166 0 279.5 114.5t113.5 282.5q0 166 -113.5 277.5t-279.5 111.5q-174 0 -283 -100t-109 -270v-19q0 -250 -158.5 -406.5t-408.5 -156.5q-254 0 -410.5 154.5t-156.5 408.5z" />
<glyph unicode="&#x1020;" horiz-adv-x="1222" d="M4 563q0 246 156.5 403.5t404.5 157.5q328 0 529 -362l-144 -80q-157 274 -385 274q-170 0 -279.5 -112.5t-109.5 -280.5q0 -170 109.5 -281.5t279.5 -111.5h31q8 -4 22 -4l19 4q68 29 215 74q223 8 223 -185q0 -41 -14 -87q-103 -205 -514 -223q-187 -9 -371 69v-364 q0 -115 111 -115h530q39 0 90 10q15 6 15 31q-25 37 -150 37l31 166h51q238 0 238 -209v-4q0 -199 -226 -199h-665q-84 0 -144.5 71.5t-50.5 155.5v455q0 165 103 165q114 0 116 -34q158 -61 322 -61h4q274 0 344 112q2 14 2 20q0 17 -27 17q-20 0 -65 -23l-64 -31 q-39 -18 -67 -22h-109q-248 0 -404.5 159.5t-156.5 407.5z" />
<glyph unicode="&#x1021;" horiz-adv-x="2086" d="M10 317l168 39q2 -43 12 -98q21 -39 146 -68q94 -20 168 -20q360 0 373 154q8 133 -271 135q-22 2 -67 -6v8h-17l4 166h101q221 0 243 159q-26 166 -366 166q-240 0 -314 -141q-8 -14 -8 -25q0 -24 39 -24h35l-12 -156h-23q-211 0 -211 197q0 170 170 254q133 65 324 65 q334 0 479 -182q168 178 416 178q196 0 358 -131q201 -166 201 -430q0 -201 -133 -360q-168 -203 -426 -203q-94 0 -185 29q-40 10 -40 67q0 107 6 125q30 94 71 129q142 123 271 123q137 0 227 -74q39 74 39 164q0 170 -110.5 282.5t-278.5 112.5q-248 0 -361 -223 q-22 -102 -112 -178q137 -90 123 -246q-31 -305 -545 -305q-162 0 -301 55q-183 72 -191 209zM1343 166q33 -2 56 -2q141 0 291 135q-56 43 -156 43q-84 0 -160 -98q-14 -17 -31 -78z" />
<glyph unicode="&#x1023;" horiz-adv-x="2217" d="M-4 535q0 243 160.5 401t406.5 158q305 0 481 -265q173 265 480 265q243 0 404 -158t161 -401q0 -123 -51 -240h-203q88 133 86 240q-16 391 -397 391q-170 0 -279.5 -110.5t-109.5 -280.5v-27q-43 -14 -43 -80q0 -102 -13 -133h-196q69 102 69 240q0 170 -110.5 280.5 t-278.5 110.5t-282.5 -113t-114.5 -278q0 -134 84 -240h-201q-53 113 -53 240zM231 -159q0 184 122 305.5t309 121.5q219 0 352 -178q131 178 354 178q184 0 308 -121.5t124 -305.5v-31l-129 -381q-12 -37 -12 -53q0 -33 29 -43h112v-162h-129q-74 0 -109.5 18.5t-74.5 79.5 v33q0 146 147 510v29q0 116 -74.5 189.5t-191.5 73.5q-115 0 -191.5 -74.5t-76.5 -188.5v-37q-60 -10 -74 -98q-18 -109 -45 -152l-121 109q74 79 74 178q0 116 -78 189.5t-194 73.5q-119 0 -195 -73.5t-76 -189.5q0 -84 58 -158l-119 -117q-99 129 -99 275z" />
<glyph unicode="&#x1024;" horiz-adv-x="2504" d="M-4 535q0 249 159.5 407t409.5 158q309 0 484 -266q165 266 479 266q246 0 403.5 -159t157.5 -406v-1128h-168v1128q0 172 -110.5 282.5t-282.5 110.5q-174 0 -286 -110.5t-112 -282.5v-27h-6q-16 -311 -362 -512l-86 151q280 158 280 388q0 170 -110.5 281.5 t-280.5 111.5q-174 0 -286.5 -110.5t-112.5 -282.5q0 -234 287 -388l-84 -153l-74 41q-299 160 -299 500zM16 -620q-14 129 68 209t215 80h1237q8 0 31 -6q135 -9 182 -54l45 -86l-143 -104q-17 78 -115 78h-1266q-26 0 -56 -21.5t-30 -46.5q0 -31 28 -60.5t58 -29.5h1878 q41 -6 56 37v1421q0 114 -13 168q-22 92 -172 129h-34l10 -2l-31 8q-162 28 -259 143t-97 279q0 180 119.5 298.5t304.5 118.5q157 0 267.5 -95t143.5 -253l-172 -55q-12 104 -76.5 171t-166.5 67q-115 0 -183.5 -70t-68.5 -182q0 -183 172 -238q125 0 233 -61 q119 -68 160 -179q31 -83 31 -247v-1454q0 -76 -56.5 -124t-134.5 -48h-1931q-88 0 -156.5 61.5t-77.5 147.5z" />
<glyph unicode="&#x1025;" horiz-adv-x="1247" d="M4 -546l2 902l25 4l145 82q156 -272 387 -272q168 0 278.5 111.5t110.5 281.5q0 166 -111.5 279.5t-277.5 113.5q-231 0 -387 -274l-145 80q205 362 532 362q248 0 403.5 -155.5t155.5 -405.5q0 -254 -153.5 -410.5t-405.5 -156.5q-211 0 -381 149v-685q0 -117 105 -117 h559q98 0 98 76v151h178v-147q0 -211 -157 -246q-29 -6 -123 -6h-555q-285 0 -283 283z" />
<glyph unicode="&#x1026;" horiz-adv-x="1247" d="M4 -546l2 902l25 4l145 82q156 -272 387 -272q168 0 278.5 111.5t110.5 281.5q0 166 -111.5 279.5t-277.5 113.5q-231 0 -387 -274l-145 80q205 362 532 362q248 0 403.5 -155.5t155.5 -405.5q0 -254 -153.5 -410.5t-405.5 -156.5q-211 0 -381 149v-685q0 -117 105 -117 h559q98 0 98 76v151h178v-147q0 -211 -157 -246q-29 -6 -123 -6h-555q-285 0 -283 283zM200 1524q0 176 120.5 295.5t296.5 119.5t292 -119.5t116 -295.5q0 -170 -121 -294t-291 -124q-174 0 -293.5 121t-119.5 297zM365 1524q0 -31 7 -70q104 78 229 92q127 0 246 -80 q6 37 6 58q0 108 -65.5 179t-174.5 71q-110 0 -179 -70t-69 -180zM445 1343q74 -61 162 -61q98 0 176 74q-78 51 -178 55q-88 -10 -160 -68z" />
<glyph unicode="&#x1027;" horiz-adv-x="1247" d="M4 565q0 248 156.5 403.5t404.5 155.5q260 0 436 -217h5l43 -59q10 -25 45 -86l-7 -2q0 -92 -86 -139q-71 -39 -167 -39q-95 0 -207 55q-176 86 -211 291q-240 -99 -240 -363q0 -262 242 -364q31 110 61 159q127 193 363 193q245 0 245 -174q0 -53 -79 -164 q-154 -211 -443 -211q-248 0 -404.5 156.5t-156.5 404.5zM547 176h18q246 0 344 193v10q0 20 -88 20q-71 0 -151 -39q-117 -77 -123 -184zM547 950q0 -155 170 -202q16 -13 69 -13q95 0 109 37q-137 184 -330 184h-18v-6z" />
<glyph unicode="&#x1029;" horiz-adv-x="2554" d="M-4 1659q0 283 291 283h1863q242 0 238 -252l-4 -185h-174v160q0 109 -80 109h-1843q-109 0 -109 -129v-2185q0 -117 109 -117h1818q101 0 101 76v1085h178v-1081q0 -252 -283 -252h-1814q-287 0 -287 283zM325 774l43 74q158 274 485 274q250 0 408.5 -155.5 t158.5 -403.5v-31q0 -165 115 -268q109 -98 277 -98q172 0 285.5 111.5t113.5 285.5q0 168 -114.5 278.5t-284.5 110.5q-70 0 -219 -55l-56 164l78 26q84 31 197 31q256 0 411.5 -150.5t155.5 -404.5q0 -252 -158.5 -409.5t-408.5 -157.5q-310 0 -480 262 q-174 -258 -479 -258q-278 0 -502 283l140 104q174 -217 362 -217q168 0 280.5 98.5t112.5 266.5v61q0 162 -118 262q-113 94 -275 94q-223 0 -381 -264z" />
<glyph unicode="&#x102a;" horiz-adv-x="4865" d="M4 565q0 248 156.5 403.5t404.5 155.5q328 0 529 -362l-144 -80q-157 274 -385 274q-170 0 -279.5 -110.5t-109.5 -280.5q0 -252 242 -364q20 241 213 346q94 53 203 53q106 0 176 -51q77 -55 77 -158q0 -65 -79 -176q-154 -211 -443 -211q-248 0 -404.5 156.5 t-156.5 404.5zM547 176h18q183 0 299 125q17 31 45 68q4 16 4 24q0 43 -96 43q-115 0 -190.5 -73.5t-79.5 -186.5zM1240 1659q0 283 291 283h1863q242 0 238 -252l-4 -185h-174v160q0 109 -80 109h-1843q-109 0 -109 -129v-2185q0 -117 109 -117h1818q101 0 101 76v1085h178 v-1081q0 -252 -283 -252h-1814q-287 0 -287 283zM1569 774l43 74q158 274 485 274q250 0 408.5 -155.5t158.5 -403.5v-31q0 -165 115 -268q109 -98 277 -98q172 0 285.5 111.5t113.5 285.5q0 168 -114.5 278.5t-284.5 110.5q-70 0 -219 -55l-56 164l78 26q84 31 197 31 q256 0 411.5 -150.5t155.5 -404.5q0 -252 -158.5 -409.5t-408.5 -157.5q-310 0 -480 262q-174 -258 -479 -258q-278 0 -502 283l140 104q174 -217 362 -217q168 0 280.5 98.5t112.5 266.5v61q0 162 -118 262q-113 94 -275 94q-223 0 -381 -264zM3494 674l12 43 q117 407 543 407q243 0 402 -157.5t159 -401.5q0 -250 -155.5 -405.5t-405.5 -155.5q-51 0 -154 25v174q96 -27 154 -27q172 0 280.5 108.5t108.5 280.5q0 166 -111.5 278.5t-277.5 112.5q-273 0 -377 -299q-2 -16 -26 -73zM3744 1524q0 176 120.5 295.5t296.5 119.5 q160 0 267.5 -94t138.5 -254q-72 -28 -152 -43q-4 -2 -12 -2q-6 0 -6 6q-8 99 -73.5 160.5t-166.5 61.5q-110 0 -179 -70t-69 -180q0 -105 69 -173.5t173 -68.5q23 0 68 6v-178q-35 -4 -62 -4q-174 0 -293.5 121t-119.5 297z" />
<glyph unicode="&#x102b;" horiz-adv-x="286" d="M-669 1522q0 178 119.5 297.5t298.5 119.5q168 0 281 -104t130 -270v-1565h-172v1536q0 16 -4 18q-35 220 -240 220q-110 0 -178.5 -71t-68.5 -181q0 -41 12 -84l-164 -37q-14 63 -14 121z" />
<glyph unicode="&#x102c;" horiz-adv-x="980" d="M-268 674l12 43q117 407 543 407q243 0 402 -157.5t159 -401.5q0 -250 -155.5 -405.5t-405.5 -155.5q-51 0 -154 25v174q96 -27 154 -27q172 0 280.5 108.5t108.5 280.5q0 166 -111.5 278.5t-277.5 112.5q-273 0 -377 -299q-2 -16 -26 -73z" />
<glyph unicode="&#x102d;" d="M-1105 1524q0 176 120.5 295.5t296.5 119.5t292 -119.5t116 -295.5q0 -170 -121 -294t-291 -124q-174 0 -293.5 121t-119.5 297zM-940 1524q0 -105 69 -173.5t173 -68.5q109 0 177.5 66.5t68.5 175.5q0 108 -65.5 179t-174.5 71q-110 0 -179 -70t-69 -180z" />
<glyph unicode="&#x102e;" d="M-1105 1524q0 176 120.5 295.5t296.5 119.5t292 -119.5t116 -295.5q0 -170 -121 -294t-291 -124q-174 0 -293.5 121t-119.5 297zM-940 1524q0 -31 7 -70q104 78 229 92q127 0 246 -80q6 37 6 58q0 108 -65.5 179t-174.5 71q-110 0 -179 -70t-69 -180zM-860 1343 q74 -61 162 -61q98 0 176 74q-78 51 -178 55q-88 -10 -160 -68z" />
<glyph unicode="&#x102f;" d="M-772 10h164v-671h168v-168h-252q-80 0 -80 98v741z" />
<glyph unicode="&#x1030;" d="M-894 10h165v-839h-165v839zM-626 10h168v-671h153v-168h-245q-76 0 -76 98v741z" />
<glyph unicode="&#x1031;" horiz-adv-x="1247" d="M4 565q0 248 156.5 403.5t404.5 155.5q328 0 529 -362l-144 -80q-157 274 -385 274q-170 0 -279.5 -110.5t-109.5 -280.5q0 -252 242 -364q20 241 213 346q94 53 203 53q106 0 176 -51q77 -55 77 -158q0 -65 -79 -176q-154 -211 -443 -211q-248 0 -404.5 156.5 t-156.5 404.5zM547 176h18q183 0 299 125q17 31 45 68q4 16 4 24q0 43 -96 43q-115 0 -190.5 -73.5t-79.5 -186.5z" />
<glyph unicode="&#x1032;" horiz-adv-x="6" d="M-1189 1585l84 178l841 -381l-92 -184z" />
<glyph unicode="&#x1033;" horiz-adv-x="286" d="M0 -731v1853h164v-1783h137v-168h-223q-78 0 -78 98z" />
<glyph unicode="&#x1034;" horiz-adv-x="571" d="M0 -829v1951h166v-1951h-166zM281 -731v1853h168v-1783h169v-168h-264q-73 0 -73 98z" />
<glyph unicode="&#x1036;" d="M-882 1444q0 92 60.5 153.5t152.5 61.5t154.5 -61.5t62.5 -153.5q0 -90 -63.5 -150.5t-153.5 -60.5t-151.5 60.5t-61.5 150.5zM-735 1444q0 -68 66 -68q69 0 69 68q0 67 -69 67q-66 0 -66 -67z" />
<glyph unicode="&#x1037;" d="M-900 -331q0 92 60 153.5t153 61.5q92 0 154.5 -61.5t62.5 -153.5t-62.5 -153.5t-154.5 -61.5q-91 0 -152 62.5t-61 152.5zM-753 -331q0 -68 66 -68q69 0 69 68q0 67 -69 67q-66 0 -66 -67z" />
<glyph unicode="&#x1038;" horiz-adv-x="552" d="M-4 258q0 92 61.5 155.5t155.5 63.5t154.5 -61.5t60.5 -157.5t-60.5 -156.5t-154.5 -60.5q-96 0 -156.5 60.5t-60.5 156.5zM-4 852q0 92 61.5 154.5t155.5 62.5q92 0 153.5 -62.5t61.5 -154.5q0 -96 -60.5 -157.5t-154.5 -61.5q-96 0 -156.5 61.5t-60.5 157.5zM147 258 q0 -70 66 -70q70 0 70 70q0 68 -70 68q-66 0 -66 -68zM147 852q0 -66 66 -66q70 0 70 66q0 70 -70 70q-66 0 -66 -70z" />
<glyph unicode="&#x1039;" d="M-1105 1524q0 176 120.5 295.5t296.5 119.5q160 0 267.5 -94t138.5 -254q-72 -28 -152 -43q-4 -2 -12 -2q-6 0 -6 6q-8 99 -73.5 160.5t-166.5 61.5q-110 0 -179 -70t-69 -180q0 -105 69 -173.5t173 -68.5q23 0 68 6v-178q-35 -4 -62 -4q-174 0 -293.5 121t-119.5 297z " />
<glyph unicode="&#x103a;" horiz-adv-x="286" d="M-411 250h168v-831l233 -55v1758h170v-1853q0 -92 -99 -92q-16 0 -45 6l-290 62q-131 28 -135 125l-2 90v790z" />
<glyph unicode="&#x103b;" horiz-adv-x="288" d="M-4 1659q0 283 291 283h897q237 0 233 -252l-4 -185h-178v160q0 109 -74 109h-874q-66 0 -88 -35q-17 -27 -17 -94v-2185q0 -117 105 -117h848q98 0 98 76v1023h180v-1019q0 -252 -283 -252h-843q-287 0 -287 283z" />
<glyph unicode="&#x103c;" horiz-adv-x="6" d="M-1087 -417q0 180 121 301.5t299 121.5q180 0 302 -121.5t122 -301.5q0 -178 -122 -300t-302 -122q-176 0 -298 123t-122 299zM-925 -417q0 -111 73.5 -184.5t184.5 -73.5q115 0 189.5 71.5t74.5 186.5q0 114 -74.5 189t-189.5 75q-113 0 -185.5 -75t-72.5 -189z" />
<glyph unicode="&#x103d;" d="M-925 -661h170v671h166v-741q0 -98 -80 -98h-256v168z" />
<glyph unicode="&#x1040;" horiz-adv-x="1247" d="M-4 563q0 244 160.5 401.5t306.5 157.5v-170q-72 0 -184.5 -110.5t-112.5 -278.5q0 -174 111.5 -283.5t185.5 -109.5v-170q-152 0 -309.5 155.5t-157.5 407.5zM663 0v170q66 0 177.5 112.5t111.5 280.5q0 166 -111.5 277.5t-177.5 111.5v170q144 0 299.5 -157.5 t155.5 -401.5q0 -246 -156.5 -404.5t-298.5 -158.5z" />
<glyph unicode="&#x1041;" horiz-adv-x="1247" d="M31 369l147 80q154 -273 385 -273q168 0 278.5 109.5t110.5 279.5q0 166 -111.5 278.5t-277.5 112.5q-231 0 -385 -274l-147 80q205 362 532 362q244 0 401.5 -157.5t157.5 -401.5q0 -248 -156.5 -404.5t-402.5 -156.5q-336 0 -489 285z" />
<glyph unicode="&#x1042;" horiz-adv-x="1247" d="M-4 -178h170v-86q0 -170 113.5 -283.5t283.5 -113.5q166 0 277.5 114.5t111.5 282.5v1308h166v-1308q0 -254 -151.5 -409.5t-403.5 -155.5t-409.5 157.5t-157.5 407.5v86z" />
<glyph unicode="&#x1043;" horiz-adv-x="1247" d="M35 772l43 76q151 274 485 274q252 0 403.5 -156.5t151.5 -408.5q0 -248 -154.5 -405.5t-400.5 -157.5q-106 0 -215 41l326 -782l-158 -68l-461 1126l105 43l37 31l10 -12h8l4 -17q156 -190 344 -190q166 0 277.5 111.5t111.5 279.5q0 170 -110.5 282.5t-278.5 112.5 q-223 0 -385 -266z" />
<glyph unicode="&#x1044;" horiz-adv-x="1247" d="M6 557q0 250 155.5 407.5t407.5 157.5q340 0 482 -274l41 -76l-140 -86q-164 266 -383 266q-170 0 -281.5 -112.5t-111.5 -282.5q0 -168 112.5 -279.5t280.5 -111.5q138 0 357 209v6l55 -25l92 -51l-459 -1120l-155 68l319 782q-104 -41 -209 -41q-245 0 -404 158.5 t-159 404.5z" />
<glyph unicode="&#x1045;" horiz-adv-x="1247" d="M-4 -178h170v-90q0 -168 112.5 -280.5t284.5 -112.5q168 0 278.5 112.5t110.5 280.5v825q0 170 -110.5 282.5t-278.5 112.5q-254 0 -368 -247q243 -29 344 -209q55 -103 55 -213q0 -103 -53 -172q-58 -80 -156 -80q-70 0 -176 78q-213 151 -213 444v4q0 250 157.5 407.5 t409.5 157.5q258 0 406.5 -143t148.5 -401v-846q0 -250 -153.5 -407.5t-401.5 -157.5q-252 0 -409.5 157.5t-157.5 407.5v90zM166 553q0 -184 129 -301q31 -16 67 -43q15 -2 25 -2q43 0 43 92q0 117 -73.5 194.5t-190.5 84.5v-25z" />
<glyph unicode="&#x1046;" horiz-adv-x="1247" d="M-4 565v824q0 249 157.5 407t409.5 158q260 0 407.5 -154.5t147.5 -417.5h-166q-2 179 -107.5 291.5t-281.5 112.5q-174 0 -285.5 -112.5t-111.5 -284.5v-824q0 -172 111.5 -283.5t285.5 -111.5q144 0 248 90t139 236l-338 61q-268 47 -270 252q-2 98 75 176t177 78 q65 0 125 -31l102 -67l-114 -142q-52 62 -89 62q-30 0 -61 -25.5t-31 -54.5q0 -47 31 -57q217 -41 492 -93q38 -4 69 -65v-25q0 -250 -153.5 -407.5t-401.5 -157.5q-252 0 -409.5 157.5t-157.5 407.5z" />
<glyph unicode="&#x1047;" horiz-adv-x="1247" d="M-4 557q0 250 157.5 407.5t409.5 157.5t403.5 -156.5t151.5 -408.5q0 -90 -24 -166l-211 -661q-31 -96 -31 -233q0 -164 100 -164q21 0 60 41l67 -154q-61 -53 -139 -53q-72 0 -137 47q-121 82 -121 283q0 254 256 949q14 41 14 111q0 170 -110.5 282.5t-278.5 112.5 q-174 0 -285.5 -111.5t-111.5 -283.5q0 -219 268 -381l-90 -147l-74 45q-274 170 -274 483z" />
<glyph unicode="&#x1048;" horiz-adv-x="1247" d="M-4 557q0 246 159.5 403.5t407.5 157.5q242 0 398.5 -158.5t156.5 -402.5q0 -326 -358 -528l-86 147q278 152 278 381q0 170 -110.5 282.5t-278.5 112.5q-254 0 -368 -247q239 -21 344 -209q55 -103 55 -207q0 -96 -55 -172q-62 -82 -154 -82q-61 0 -176 82 q-213 153 -213 440zM166 557q0 -182 129 -299q31 -16 67 -43q15 -6 25 -6q43 0 43 96q0 117 -73.5 195t-190.5 78v-21z" />
<glyph unicode="&#x1049;" horiz-adv-x="1247" d="M-4 -268v831q0 250 157.5 405.5t409.5 155.5q248 0 401.5 -155.5t153.5 -405.5v-28q-31 -60 -69 -62q-275 -55 -492 -94q-31 -10 -31 -55q0 -58 76 -80q43 -15 105 57l114 -141q-90 -66 -102 -68q-57 -31 -125 -31q-100 0 -177 78t-75 178q2 203 270 252l338 62 q-32 145 -136.5 235t-250.5 90q-172 0 -284.5 -112.5t-112.5 -280.5v-831q0 -168 112.5 -280.5t284.5 -112.5q176 0 281.5 112.5t107.5 290.5h166q0 -247 -160 -411q-104 -107 -198 -142q-62 -22 -197 -22q-252 0 -409.5 157.5t-157.5 407.5z" />
<glyph unicode="&#x104a;" horiz-adv-x="417" d="M61 0v1032h160v-1032h-160z" />
<glyph unicode="&#x104b;" horiz-adv-x="688" d="M61 0v1032h170v-1032h-170zM326 0v1032h170v-1032h-170z" />
<glyph unicode="&#x104c;" horiz-adv-x="1220" d="M0 762q160 291 410 356q-277 131 -277 404q0 178 119 297.5t299 119.5q158 0 268.5 -98t138.5 -256q-53 -18 -147 -49q-18 0 -18 12q-27 226 -242 226q-115 0 -183.5 -70t-68.5 -182q0 -109 69.5 -179.5t178.5 -70.5q16 0 65 6v-154q222 -34 351 -183.5t129 -375.5 q0 -256 -150 -415q-154 -168 -407 -154q-50 4 -179 22q-104 60 -131 60q-39 0 -18 -37q59 -118 344 -118q67 0 168 18q135 25 151 47q82 35 117 35q105 0 105 -162v-463q8 -84 -51.5 -155.5t-143.5 -71.5h-666q-227 0 -227 199v4q0 209 240 209h55l27 -170q-123 4 -150 -33 q2 -12 21 -35q45 -6 86 -6h526q117 0 117 115v364q-183 -67 -373 -67h-2q-166 0 -264 32q-113 37 -221 140q-41 53 -41 138q0 195 219 183q45 -4 118 -35q82 -37 117 -43q13 0 17 4h39q170 0 280.5 112.5t110.5 282.5q0 168 -113 280.5t-278 112.5q-234 0 -388 -272z" />
<glyph unicode="&#x104d;" horiz-adv-x="1503" d="M6 565q0 248 158 409t405 161q250 0 408 -160t158 -410v-1160h-177v1160q0 168 -111.5 280.5t-277.5 112.5q-170 0 -280.5 -111.5t-110.5 -281.5v-12q62 18 139 18q179 0 316 -106q147 -115 147 -289q0 -186 -180 -186q-35 0 -68 6q-245 16 -385.5 168.5t-140.5 400.5z M16 -620q-14 129 68 209t215 80h252l94 -13q57 -8 98 -43q13 -6 56 -90l-144 -104q-18 78 -120 78h-267q-26 0 -53 -21.5t-27 -46.5q0 -35 24 -62.5t58 -27.5h877q41 -6 57 35v1423q0 114 -12 168q-23 92 -172 129h-25l4 -7l-34 13q-158 28 -255.5 144t-97.5 278 q0 180 119 298.5t301 118.5q158 0 269.5 -96t142.5 -252l-172 -55q-27 238 -242 238q-108 0 -179 -73t-71 -179q0 -183 170 -238q307 0 393 -240q31 -86 31 -247v-1454q0 -74 -55 -123t-129 -49h-946q-88 0 -153.5 61.5t-74.5 147.5zM209 422q16 -35 35 -68 q131 -194 288 -194q33 0 62 16l14 12v13q0 118 -123 188q-108 60 -233 51z" />
<glyph unicode="&#x104e;" horiz-adv-x="2924" d="M0 563q0 246 157.5 403.5t405.5 157.5q328 0 531 -362l-150 -80q-156 274 -381 274q-170 0 -281.5 -112.5t-111.5 -280.5q0 -170 111.5 -281.5t281.5 -111.5q228 0 381 272l98 -51h7l43 -29v-1191h-170v952q-162 -127 -359 -127q-248 0 -405.5 159.5t-157.5 407.5z M1200 565q0 248 156.5 403.5t404.5 155.5q328 0 529 -362l-144 -80q-157 274 -385 274q-170 0 -279.5 -110.5t-109.5 -280.5t109.5 -279.5t279.5 -109.5q228 0 385 273l144 -80l-37 -80q-60 -129 -205 -211q-137 -74 -287 -74q-248 0 -404.5 156.5t-156.5 404.5zM1400 1524 q0 176 120.5 295.5t296.5 119.5q160 0 267.5 -94t138.5 -254q-72 -28 -152 -43q-4 -2 -12 -2q-6 0 -6 6q-8 99 -73.5 160.5t-166.5 61.5q-110 0 -179 -70t-69 -180q0 -105 69 -173.5t173 -68.5q23 0 68 6v-178q-35 -4 -62 -4q-174 0 -293.5 121t-119.5 297zM2350 258 q0 92 61.5 155.5t155.5 63.5t154.5 -61.5t60.5 -157.5t-60.5 -156.5t-154.5 -60.5q-96 0 -156.5 60.5t-60.5 156.5zM2350 852q0 92 61.5 154.5t155.5 62.5q92 0 153.5 -62.5t61.5 -154.5q0 -96 -60.5 -157.5t-154.5 -61.5q-96 0 -156.5 61.5t-60.5 157.5zM2501 258 q0 -70 66 -70q70 0 70 70q0 68 -70 68q-66 0 -66 -68zM2501 852q0 -66 66 -66q70 0 70 66q0 70 -70 70q-66 0 -66 -70z" />
<glyph unicode="&#x104f;" horiz-adv-x="1804" d="M4 569q0 246 159 406t406 160q230 0 400 -183q94 74 174 74q203 0 239 -186v-840h-172v823q-6 31 -63 31q-17 -4 -74 -33q19 -33 31 -49l-12 -10q0 -86 -88 -135q-72 -43 -164 -43q-107 0 -209 53q-174 84 -209 297q-246 -100 -246 -365q0 -266 242 -366q37 116 65 159 q119 195 365 195q244 0 244 -178q0 -49 -80 -160q-154 -215 -443 -215q-247 0 -406 159t-159 406zM551 176h18q183 0 301 129q17 23 39 64l6 4v6q0 24 -92 24q-63 0 -149 -34q-119 -82 -123 -193zM551 952q0 -151 168 -196q20 -13 72 -13q94 0 106 31q-137 184 -328 184h-18 v-6zM913 1522q0 178 119 297.5t299 119.5q164 0 273.5 -96t140.5 -258l-166 -45q-31 234 -252 234q-115 0 -181.5 -70t-66.5 -182q0 -183 174 -238q129 0 236 -59q115 -66 158 -181q28 -73 28 -241v-803h-170v803q0 125 -12 166q-18 88 -166 131h-33l2 -8l-30 12 q-158 26 -255.5 141t-97.5 277z" />
<glyph unicode="&#x105a;" horiz-adv-x="679" d="M-669 1522q0 180 118.5 298.5t301.5 118.5q176 0 298 -122l23 -23q88 154 266 154q129 0 231 -88l-61 -142l-47 45q-43 31 -113 31q-82 0 -135 -56.5t-53 -135.5l4 -1602h-170v1536q0 16 -4 18q-35 220 -241 220q-111 0 -178.5 -71t-67.5 -181q0 -41 8 -84l-166 -37 q-14 63 -14 121z" />
<glyph unicode="&#x1060;" d="M-1966 -421q0 192 121 306.5t312 114.5q219 0 354 -176q131 176 350 176q193 0 312.5 -114.5t119.5 -306.5q0 -191 -119.5 -305.5t-312.5 -114.5q-53 0 -121 14q10 53 17 166q86 -25 104 -25q115 0 190.5 76t75.5 189q0 114 -75.5 188t-190.5 74q-117 0 -193.5 -72 t-76.5 -190v-39h-4q-15 -221 -295 -369l-76 141q211 117 211 267q0 118 -76 190t-194 72q-113 0 -190 -74t-77 -188q0 -156 209 -267l-78 -141l-73 37q-224 113 -224 371z" />
<glyph unicode="&#x1061;" d="M-1079 -274q170 270 406 270q180 0 298.5 -119.5t118.5 -299.5q0 -181 -118.5 -301.5t-298.5 -120.5q-138 0 -256 84q-131 92 -131 223q0 20 4 47q24 25 82 57q16 4 67 25q43 16 62 16q123 0 210 -64.5t103 -180.5q117 75 117 215q0 114 -72 189t-186 75 q-148 0 -267 -201zM-907 -546q72 -146 209 -146q27 0 43 4l53 15q-86 153 -213 153q-20 -2 -92 -26z" />
<glyph unicode="&#x1062;" d="M-1085 -446q0 180 123 301t301 121q180 0 301 -121t121 -301q0 -260 -256 -387l-98 127q194 119 194 260q0 113 -74.5 187.5t-187.5 74.5t-188.5 -73.5t-75.5 -188.5q0 -137 196 -260l-104 -123l-49 25q-203 100 -203 358z" />
<glyph unicode="&#x1063;" d="M-1957 -409q0 90 68 170q32 37 141 125l-31 6q-8 0 -51 -27l-59 107q75 59 172 59q63 0 102 -41t39 -104q0 -72 -80 -129q-135 -94 -135 -166q0 -113 76 -186.5t188 -73.5q119 0 195 71.5t76 188.5q0 153 -215 270l79 139l72 -34q203 -97 227 -334h2v-37 q0 -117 77 -190.5t194 -73.5q114 0 191 74.5t77 189.5t-77 186.5t-191 71.5q-39 0 -131 -22l14 173q90 12 117 12q192 0 312.5 -115.5t120.5 -305.5q0 -188 -121.5 -306t-311.5 -118q-221 0 -352 178q-136 -178 -355 -178q-190 0 -310 114.5t-120 305.5z" />
<glyph unicode="&#x1064;" horiz-adv-x="6" d="M-907 1401q0 80 60 151q-50 74 -54 144h4q5 90 61 146t144 56q109 0 166 -73l-76 -94q-36 41 -84 55q-94 0 -94 -98q-8 -33 37 -78l55 10q99 0 154 -74l-74 -96q-30 39 -78 47q-86 -4 -106 -98q0 -94 100 -99q51 -2 80 56q49 -41 78 -84q-84 -82 -164 -82 q-94 0 -151.5 57.5t-57.5 153.5z" />
<glyph unicode="&#x1065;" d="M-1079 -421q0 180 121 300.5t301 120.5t300 -120.5t120 -300.5q0 -179 -120 -299.5t-300 -120.5q-176 0 -299 121.5t-123 298.5zM-915 -421q0 -129 70 -193q53 78 55 168q4 121 -55 209q-70 -62 -70 -184zM-743 -182q55 -106 55 -233q0 -123 -55 -246q37 -20 86 -20 q111 0 185.5 74.5t74.5 185.5q0 114 -72.5 188t-187.5 74q-14 0 -86 -23z" />
<glyph unicode="&#x1066;" horiz-adv-x="9" d="M-1957 -264q172 274 414 274q215 0 354 -175q129 179 350 179q189 0 311.5 -118.5t122.5 -306.5q0 -191 -120.5 -305.5t-313.5 -114.5q-215 0 -350 174q-135 -178 -354 -178q-142 0 -260 80q-136 90 -136 225q0 61 70 125q45 6 117 24q6 -4 6 -8l-6 -6l12 -4l-6 25l-2 -2 v6l-6 -6q303 0 334 -271q147 82 147 236q0 119 -76 190.5t-194 71.5q-150 0 -271 -195zM-1767 -534v-25q52 -98 248 -112q-14 155 -174 155q-74 0 -74 -18zM-1107 -411q0 -113 76.5 -185.5t191.5 -72.5t190.5 72.5t75.5 185.5q0 114 -75.5 189t-190.5 75t-191.5 -75 t-76.5 -189z" />
<glyph unicode="&#x1067;" d="M-1466 -264q172 274 414 274q215 0 354 -175q129 179 350 179q189 0 311.5 -118.5t122.5 -306.5q0 -191 -120.5 -305.5t-313.5 -114.5q-215 0 -350 174q-135 -178 -354 -178q-142 0 -260 80q-136 90 -136 225q0 61 70 125q45 6 117 24q6 -4 6 -8l-6 -6l12 -4l-6 25l-2 -2 v6l-6 -6q303 0 334 -271q147 82 147 236q0 119 -76 190.5t-194 71.5q-150 0 -271 -195zM-1276 -534v-25q52 -98 248 -112q-14 155 -174 155q-74 0 -74 -18zM-616 -411q0 -113 76.5 -185.5t191.5 -72.5t190.5 72.5t75.5 185.5q0 114 -75.5 189t-190.5 75t-191.5 -75 t-76.5 -189z" />
<glyph unicode="&#x1068;" d="M-1079 -421q0 182 120 301.5t302 119.5q189 0 307.5 -113.5t118.5 -301.5q0 -162 -57 -178q-11 -74 55 -74q12 0 45 6l-51 -131q-197 27 -191 199q-208 43 -208 239q0 113 61 176q-43 19 -80 19q-115 0 -186.5 -74t-71.5 -188q0 -111 68.5 -182.5t179.5 -71.5 q55 0 151 18l21 -158q-86 -26 -166 -26q-176 0 -297 121.5t-121 298.5zM-526 -344q0 -53 37 -91t90 -38h14q7 25 7 39q0 148 -117 213q-31 -49 -31 -123z" />
<glyph unicode="&#x1069;" horiz-adv-x="286" d="M-1079 -421q0 180 121 300.5t301 120.5t300 -120.5t120 -300.5q0 -76 -21 -148l246 -67v1758h172v-1853q0 -92 -99 -92q-26 0 -49 6l-372 99q-119 -123 -297 -123q-176 0 -299 121.5t-123 298.5zM-915 -421q0 -129 70 -193q53 78 55 168q4 121 -55 209q-70 -62 -70 -184z M-743 -182q55 -106 55 -233q0 -123 -55 -246q37 -20 86 -20q111 0 185.5 74.5t74.5 185.5q0 114 -72.5 188t-187.5 74q-14 0 -86 -23z" />
<glyph unicode="&#x106a;" horiz-adv-x="1247" d="M4 -546l2 902l25 4l145 82q156 -272 387 -272q168 0 278.5 111.5t110.5 281.5q0 166 -111.5 279.5t-277.5 113.5q-231 0 -387 -274l-145 80q205 362 532 362q248 0 403.5 -155.5t155.5 -405.5q0 -254 -153.5 -410.5t-405.5 -156.5q-211 0 -381 149v-685q0 -117 105 -117 h39v-172h-39q-285 0 -283 283z" />
<glyph unicode="&#x106b;" horiz-adv-x="2187" d="M0 258l121 86l45 41l4 -4l8 12v-24q162 -203 357 -203q170 0 280.5 99.5t110.5 266.5v62q0 164 -113 261t-278 97q-222 0 -383 -266l-148 86l43 76q152 274 488 274q249 0 407 -157.5t158 -407.5v-31q0 -168 112.5 -265t280.5 -97q172 0 284.5 109.5t112.5 283.5 q0 168 -113.5 281.5t-283.5 113.5q-72 0 -221 -55l-55 160l79 30q80 31 197 31q248 0 406.5 -157.5t158.5 -403.5t-160.5 -406.5t-404.5 -160.5q-311 0 -481 266q-170 -262 -477 -262q-195 0 -357 123v-657q0 -117 109 -117h1112v-172h-1112q-287 0 -287 283v804z" />
<glyph unicode="&#x106c;" d="M-1005 -225q0 113 108 180q93 57 211 57q183 0 318 -171l-127 -49q-86 112 -191 112q-65 0 -118 -28q-62 -37 -62 -101q0 -61 62 -98q53 -31 118 -31q105 0 191 115l127 -49l-37 -54q-84 -118 -281 -118q-118 0 -211 57q-108 68 -108 178zM-989 -526l64 90l80 -43 q96 -30 159 -30q58 0 177 36q28 9 51 9q73 0 73 -86v-179h74v-100h-123q-88 0 -88 80v149q-84 -18 -166 -18q-170 0 -249 55z" />
<glyph unicode="&#x106d;" d="M-2203 -299q0 287 276 287q115 0 199 -72.5t88 -185.5l-145 -29q-2 134 -142 134q-112 12 -112 -134v-208q0 -54 33.5 -99t84.5 -45h566q129 0 129 178v33q0 195 118.5 309.5t311.5 114.5q180 0 301 -120t121 -300q0 -209 -160 -329l-12 -9l-92 129q104 84 104 209 q0 117 -73.5 194t-190.5 77t-189.5 -74t-74.5 -191q-11 -366 -293 -366h-566q-112 0 -197 83t-85 197v217z" />
<glyph unicode="&#x106e;" horiz-adv-x="1222" d="M0 762q205 362 535 362q249 0 403 -155.5t154 -405.5q0 -262 -146 -418q-153 -167 -411 -149q-17 2 -175 22q-108 54 -139 54q-33 0 -14 -31q61 -118 344 -118h2q82 0 172 16q127 23 152 49q75 30 112 30q98 0 103 -153v-503q0 -35 43 -29h98v-162h-182q-125 0 -125 141 v506q-199 -74 -373 -69q-313 6 -487 174q-41 53 -41 136q0 193 219 185q45 -4 129 -47q41 -23 106 -31q17 0 19 4h37q170 0 280.5 111.5t110.5 281.5q0 166 -113 279.5t-278 113.5q-234 0 -388 -274zM324 -362q110 111 264 111q272 0 272 -166q0 -90 -98 -135 q-78 -37 -174 -35q-10 4 -84 6q-8 4 -31 10l-6 -12q43 -12 129 -12q35 0 104.5 13t104.5 13q55 0 55 -55v-148h66v-55h-90q-64 0 -64 49v140q-86 -23 -176 -23h-6q-74 0 -82 4q-72 2 -152 49q-18 15 -18 45q0 60 115 56q28 -9 104 -19h31q184 0 184 109q0 104 -184 104 q-109 0 -189 -78z" />
<glyph unicode="&#x106f;" horiz-adv-x="1247" d="M-4 563q0 223 285 393l30 19q-26 20 -30 20q-54 0 -111 -43l-66 140q70 55 195 55q68 0 124 -54.5t56 -121.5q0 -68 -98 -148q-6 -8 -148 -118q-67 -68 -67 -142q0 -174 111.5 -285.5t285.5 -111.5q51 0 111 16v74q-111 -23 -152 -16l-61 10q-37 8 -105 63q-14 39 -14 68 q0 86 92 86q15 0 88 -25h10q142 0 142 129q0 54 -36 91.5t-87 37.5q-72 0 -139 -116l-95 55q97 170 234 170q100 0 163.5 -67.5t63.5 -170.5q0 -104 -61 -172q-64 -73 -166 -67q-29 -4 -72 10q-10 0 -12 2v10h-8l2 -10q18 -6 86 -14q86 2 121 26l20 17q19 2 43 6 q43 -10 43 -80v-68q178 121 178 332q0 225 -278 387l76 144l77 -37q291 -139 291 -494q0 -379 -344 -528v-770h55v-88h-88q-67 0 -67 80v749q-62 -12 -111 -12q-252 0 -409.5 158.5t-157.5 410.5z" />
<glyph unicode="&#x1070;" d="M-2162 -405q0 188 122 308t310 120q176 0 307 -127q53 64 135 64q74 0 129 -64q135 127 308 127q192 0 314 -119t122 -309q0 -250 -291 -412l-84 144q213 110 213 268q0 121 -77 193.5t-197 72.5q-117 0 -192 -74.5t-75 -191.5v-207q0 -74 -47 -126t-123 -52 q-73 0 -123.5 52t-50.5 126v240q-12 104 -88 168.5t-180 64.5q-119 0 -194.5 -72.5t-75.5 -193.5q0 -158 215 -270l-80 -146l-74 41q-223 121 -223 375zM-1327 -237v-369q0 -49 39 -49q31 0 31 49v369q0 49 -31 49q-39 0 -39 -49z" />
<glyph unicode="&#x1071;" d="M-1957 -423q0 188 114.5 297.5t302.5 109.5q213 0 344 -172q127 172 342 172q193 0 306.5 -108.5t113.5 -298.5q0 -189 -115.5 -300.5t-304.5 -111.5q-86 0 -196 51l57 139q96 -36 139 -36q115 0 188 71.5t73 186.5q0 114 -73 182.5t-188 68.5q-114 0 -188 -68.5 t-74 -182.5v-37h-2q-16 -174 -130.5 -274.5t-291.5 -100.5q-184 0 -300.5 113.5t-116.5 298.5zM-1798 -423q0 -115 73 -186.5t185 -71.5q115 0 189 71.5t74 186.5q0 114 -74 182.5t-189 68.5q-112 0 -185 -68.5t-73 -182.5z" />
<glyph unicode="&#x1072;" d="M-1466 -423q0 188 115 297.5t303 109.5q213 0 344 -172q127 172 342 172q193 0 307 -108.5t114 -298.5q0 -189 -116.5 -300.5t-304.5 -111.5q-86 0 -197 51l58 139q96 -36 139 -36q115 0 187.5 71.5t72.5 186.5q0 114 -72.5 182.5t-187.5 68.5t-188.5 -68.5t-73.5 -182.5 v-37h-2q-17 -174 -131.5 -274.5t-290.5 -100.5q-184 0 -301 113.5t-117 298.5zM-1306 -423q0 -115 72.5 -186.5t185.5 -71.5q115 0 188.5 71.5t73.5 186.5q0 114 -73.5 182.5t-188.5 68.5q-113 0 -185.5 -68.5t-72.5 -182.5z" />
<glyph unicode="&#x1073;" d="M-1957 -413q0 190 121 304.5t313 114.5q221 0 352 -174q136 174 355 174q192 0 312 -114.5t120 -304.5q0 -191 -120 -306.5t-312 -115.5q-219 0 -355 176q-131 -176 -352 -176q-192 0 -313 115.5t-121 306.5zM-1787 -413q0 -115 75 -189t189 -74q117 0 194 73t77 190 q0 116 -77 190t-194 74q-114 0 -189 -75t-75 -189zM-1091 -413q0 -117 78 -190t197 -73q114 0 189 74t75 189q0 114 -75 189t-189 75q-117 0 -196 -74t-79 -190z" />
<glyph unicode="&#x1074;" d="M-1466 -413q0 190 118.5 304.5t311.5 114.5q217 0 350 -174q135 174 356 174q193 0 313.5 -114.5t120.5 -304.5q0 -191 -120.5 -306.5t-313.5 -115.5q-221 0 -356 176q-133 -176 -350 -176q-189 0 -309.5 116.5t-120.5 305.5zM-1301 -413q0 -115 75 -189t190 -74 q116 0 193 73t77 190q0 116 -77 190t-193 74q-115 0 -190 -75t-75 -189zM-604 -413q0 -117 77.5 -190t196.5 -73q115 0 190.5 74t75.5 189q0 114 -75.5 189t-190.5 75q-121 0 -197.5 -72t-76.5 -192z" />
<glyph unicode="&#x1075;" d="M-1079 -249q0 133 125 198q96 51 242 51q389 0 426 -251v-7q0 -98 -74 -170q84 -73 74 -178q-21 -235 -426 -235q-119 0 -228 45q-139 59 -139 164v55l154 31q16 -140 213 -140q256 0 266 97q8 73 -199 73q-8 0 -36 -6q-7 13 -17 13l6 153q51 2 78 2h12q136 0 154 96 q-25 99 -264 99q-158 0 -209 -99h14v-6q23 6 41 8l-16 -153h-27q-170 0 -170 160z" />
<glyph unicode="&#x1076;" d="M-1079 -409q0 178 121 299.5t297 121.5q180 0 301 -120.5t121 -300.5q0 -178 -121 -301t-301 -123q-178 0 -298 123t-120 301zM-921 -409q0 -82 24 -113q95 92 236 99q115 6 244 -99q20 47 20 113q0 115 -74.5 188.5t-189.5 73.5q-111 0 -185.5 -74.5t-74.5 -187.5z M-845 -608q49 -65 184 -65t188 67q-51 82 -188 80q-123 0 -184 -82z" />
<glyph unicode="&#x1077;" d="M-1118 -675q-18 245 264 245q218 0 242 -190q0 -25 4 -84q174 4 187 59q18 72 -148 148l-246 112q-143 86 -143 203q0 192 266 192q97 0 168 -36q88 -47 88 -133q0 -19 -22 -43h-166l31 26v17q-7 8 -105 12q-106 4 -106 -41q0 -31 104 -76q201 -88 289 -147 q155 -107 155 -230q0 -213 -387 -213h-100q-197 0 -237 13q-127 39 -138 166zM-952 -669q0 -29 180 -29q-2 64 -16 84.5t-72 20.5q-102 0 -92 -76z" />
<glyph unicode="&#x1078;" d="M-1079 -409q0 262 256 385l99 -123q-191 -123 -191 -262q0 -111 73.5 -185.5t184.5 -74.5q115 0 189.5 73.5t74.5 186.5q0 139 -196 262l106 123l47 -25q203 -108 203 -360q0 -178 -122 -299t-302 -121q-182 0 -302 120t-120 300z" />
<glyph unicode="&#x1079;" d="M-1079 -409q0 262 256 385l99 -123q-191 -123 -191 -262q0 -111 73.5 -185.5t184.5 -74.5q137 0 223 119q-186 77 -221 276q-14 94 27 166q45 80 137 80q12 0 25 -6l30 -15q203 -100 203 -360q0 -178 -122 -299t-302 -121q-182 0 -302 120t-120 300zM-534 -268 q0 -155 135 -198q12 49 12 79q0 117 -129 209q-18 -28 -18 -90z" />
<glyph unicode="&#x107a;" d="M-1079 -409q0 231 250 379l21 -19l30 -41l6 -18q56 -57 117 -57q62 0 103 49l45 92h24l10 -10l31 -13q205 -122 205 -362q0 -180 -119 -300t-301 -120t-302 120t-120 300zM-915 -409q0 -113 71.5 -186.5t186.5 -73.5q111 0 185.5 74.5t74.5 185.5q0 123 -82 207 q-67 -84 -178 -84q-108 0 -172 74q-86 -82 -86 -197z" />
<glyph unicode="&#x107b;" d="M-1957 -571l135 82q119 -190 266 -190q109 0 187 61.5t78 165.5v47q0 103 -82 172q-76 64 -183 64q-122 0 -254 -160l-122 96q176 217 376 217q207 0 342 -168q129 168 340 168q191 0 306.5 -109.5t115.5 -297.5q0 -189 -115.5 -299.5t-306.5 -110.5q-75 0 -221 53 l56 148q116 -43 165 -43q113 0 185.5 70.5t72.5 181.5q0 110 -72.5 182t-185.5 72q-104 0 -178 -62q-80 -65 -80 -168v-24q0 -189 -116.5 -300.5t-307.5 -111.5q-237 0 -362 199z" />
<glyph unicode="&#x107c;" d="M-1079 -409q0 262 256 385l99 -123q-191 -123 -191 -262q0 -70 37 -141q92 77 217 77q123 0 227 -73q41 67 41 137q0 139 -196 262l106 123l47 -25q203 -108 203 -360q0 -178 -122 -299t-302 -121q-182 0 -302 120t-120 300zM-815 -624q56 -45 158 -45q74 0 160 51 q-94 43 -160 41q-72 -4 -158 -47z" />
<glyph unicode="&#x107d;" horiz-adv-x="286" d="M-409 -630l166 49l233 -55v1758h170v-1853q0 -92 -99 -92q-16 0 -45 6l-290 62q-131 28 -135 125z" />
<glyph unicode="&#x107e;" horiz-adv-x="288" d="M-4 1659q0 283 291 283h1863q242 0 238 -252l-4 -185h-174v160q0 109 -80 109h-1843q-109 0 -109 -129v-2185q0 -117 109 -117h1818q101 0 101 76v1085h178v-1081q0 -252 -283 -252h-1814q-287 0 -287 283z" />
<glyph unicode="&#x107f;" horiz-adv-x="288" d="M-4 1659q0 283 291 283h282l-4 -168h-278q-66 0 -88 -35q-17 -27 -17 -94v-2185q0 -117 105 -117h848q98 0 98 76v1085h180v-1081q0 -252 -283 -252h-843q-287 0 -287 283z" />
<glyph unicode="&#x1080;" horiz-adv-x="288" d="M-4 1659q0 283 291 283h1249v-168h-1249q-109 0 -109 -129v-2185q0 -117 109 -117h1818q101 0 101 76v1085h178v-1081q0 -252 -283 -252h-1814q-287 0 -287 283z" />
<glyph unicode="&#x1081;" horiz-adv-x="288" d="M-4 1659q0 283 291 283h897q237 0 233 -252l-4 -185h-178v160q0 109 -74 109h-874q-66 0 -88 -35q-17 -27 -17 -94v-2185q0 -117 105 -117h350v-172h-350q-287 0 -287 283z" />
<glyph unicode="&#x1082;" horiz-adv-x="288" d="M-4 1659q0 283 291 283h1863q242 0 238 -252l-4 -185h-174v160q0 109 -80 109h-1843q-109 0 -109 -129v-2185q0 -117 109 -117h1284l-4 -172h-1280q-287 0 -287 283z" />
<glyph unicode="&#x1083;" horiz-adv-x="288" d="M-4 1659q0 283 291 283h282l-4 -168h-278q-66 0 -88 -35q-17 -27 -17 -94v-2185q0 -117 105 -117h350v-172h-350q-287 0 -287 283z" />
<glyph unicode="&#x1084;" horiz-adv-x="288" d="M-4 1659q0 283 291 283h1249v-168h-1249q-109 0 -109 -129v-2185q0 -117 109 -117h1284l-4 -172h-1280q-287 0 -287 283z" />
<glyph unicode="&#x1085;" d="M-1972 -403q0 188 122 307t310 119q191 0 313 -119t122 -307q0 -117 74.5 -187.5t191.5 -70.5q115 0 191.5 72.5t76.5 185.5q0 115 -76.5 189.5t-191.5 74.5q-41 0 -156 -43l15 176q79 29 141 29q190 0 312 -119t122 -307q0 -190 -121 -305t-313 -115q-191 0 -311.5 115 t-120.5 305q0 119 -75 191.5t-194 72.5q-112 0 -189 -74.5t-77 -189.5q0 -211 297 -270l-27 -160l-79 16q-160 31 -258.5 142.5t-98.5 271.5z" />
<glyph unicode="&#x1086;" horiz-adv-x="3186" d="M35 774l43 74q158 274 485 274q252 0 409.5 -153.5t157.5 -405.5v-31q0 -165 117 -268q111 -98 277 -98q172 0 285.5 111.5t113.5 285.5q0 168 -114.5 278.5t-284.5 110.5q-68 0 -215 -55l-58 164l76 26q86 31 197 31q256 0 412.5 -150.5t156.5 -404.5v-31 q0 -165 119 -268q112 -98 280 -98q172 0 284 111.5t112 285.5q0 168 -113 278.5t-283 110.5q-71 0 -219 -55l-63 164l82 26q92 31 200 31q250 0 408 -153.5t158 -401.5q0 -254 -157 -410.5t-409 -156.5q-321 0 -483 262q-174 -262 -485 -262q-312 0 -480 262 q-170 -258 -481 -258q-274 0 -502 283l136 104q178 -217 366 -217q168 0 281.5 98.5t113.5 266.5v61q0 160 -118 262q-115 94 -277 94q-223 0 -381 -264z" />
<glyph unicode="&#x1087;" d="M-952 -452h197v493h166v-563q0 -96 -80 -96h-283v166z" />
<glyph unicode="&#x1088;" d="M-916 -661h172v733h170v-803q0 -98 -79 -98h-263v168zM-479 72h168v-733h176v-168h-264q-80 0 -80 98v803z" />
<glyph unicode="&#x1089;" d="M-1196 -661h172v733h170v-803q0 -98 -79 -98h-263v168zM-747 72h170v-901h-170v901zM-479 72h168v-733h176v-168h-264q-80 0 -80 98v803z" />
<glyph unicode="&#x108a;" d="M-1486 -538l172 35q-2 -13 -2 -25q0 -31 16 -55q12 -49 154 -49q57 0 96 24q-43 92 -43 191q0 182 119.5 302.5t300.5 120.5q182 0 303 -120.5t121 -302.5q0 -178 -122 -300t-302 -122q-154 0 -277 98q-88 -55 -211 -55q-258 0 -305 176zM-937 -417q0 -115 75.5 -186.5 t188.5 -71.5q118 0 190 70.5t72 187.5q0 116 -72 190t-190 74q-117 0 -190.5 -74t-73.5 -190z" />
<glyph unicode="&#x108b;" d="M-1419 1401q0 80 62 151q-56 74 -60 144h4q7 90 62 146t143 56q35 0 78 -8l20 -172q-47 54 -92 68q-94 0 -98 -98q0 -31 37 -78l55 10q35 0 78 -10l12 -180q-43 59 -84 67q-86 -4 -106 -98q0 -41 37 -68q22 -31 63 -31q31 -2 90 68l-12 -158q-43 -20 -84 -20 q-92 0 -148.5 59.5t-56.5 151.5zM-1105 1524q0 176 120.5 295.5t296.5 119.5t292 -119.5t116 -295.5q0 -170 -121 -294t-291 -124q-174 0 -293.5 121t-119.5 297zM-940 1524q0 -105 69 -173.5t173 -68.5q109 0 177.5 66.5t68.5 175.5q0 108 -65.5 179t-174.5 71 q-110 0 -179 -70t-69 -180z" />
<glyph unicode="&#x108c;" d="M-1449 1399q0 82 61 153q-16 25 -43 62q-16 33 -16 82h4q6 90 64.5 146t146.5 56q114 0 172 -73l-82 -92q-31 39 -80 53q-103 0 -103 -98q-6 -33 37 -78l60 10q67 0 123 -35q22 164 136.5 259t280.5 95q179 0 293.5 -117.5t114.5 -297.5q0 -176 -118 -297t-294 -121 q-172 0 -284.5 105.5t-133.5 279.5l-36 -43q-27 43 -76 45q-92 2 -115 -92q0 -101 103 -101q57 -8 88 56q53 -41 77 -86q-81 -86 -170 -86q-92 0 -151 60.5t-59 154.5zM-944 1522q0 -41 17 -86q61 118 223 118q164 0 238 -116q14 43 14 86q0 108 -65.5 179t-174.5 71 q-112 0 -182 -70t-70 -182zM-866 1346q47 -62 166 -68q64 -4 131 37l47 41q-30 94 -170 94q-49 0 -104 -29q-64 -30 -70 -75z" />
<glyph unicode="&#x108d;" horiz-adv-x="6" d="M-907 1401q0 80 62 151q-56 66 -56 138h4q5 92 61 153.5t148 61.5q111 0 172 -80l-84 -92q-32 43 -81 53q-99 0 -99 -98q-6 -35 37 -74l55 6q107 0 166 -74l-80 -98q-30 41 -79 49q-91 0 -105 -96q0 -43 31 -64q24 -37 67 -37q56 -2 82 58q54 -43 84 -88 q-86 -80 -170 -80q-94 0 -154.5 57.5t-60.5 153.5zM-503 1745q0 92 62.5 155.5t154.5 63.5q96 0 158.5 -61.5t62.5 -157.5t-62.5 -156.5t-158.5 -60.5q-99 0 -158 59.5t-59 157.5zM-354 1745q0 -70 68 -70q71 0 71 70q0 67 -71 67q-68 0 -68 -67z" />
<glyph unicode="&#x108e;" d="M-1105 1524q0 178 118.5 296.5t298.5 118.5q179 0 296.5 -118.5t117.5 -296.5q0 -176 -119 -297t-295 -121q-178 0 -297.5 120t-119.5 298zM-937 1524q0 -105 70.5 -173.5t174.5 -68.5q107 0 176.5 68.5t69.5 173.5q0 108 -66.5 179t-175.5 71q-114 0 -181.5 -68 t-67.5 -182zM-264 1745q0 98 61.5 158.5t159.5 60.5q96 0 157.5 -61.5t61.5 -157.5q0 -98 -60.5 -159.5t-158.5 -61.5q-96 0 -158.5 62.5t-62.5 158.5zM-114 1745q0 -70 71 -70q68 0 68 70q0 67 -68 67q-71 0 -71 -67z" />
<glyph unicode="&#x108f;" horiz-adv-x="1247" d="M4 225q-26 310 328 310q282 0 313 -236v-133q273 0 293 92q23 102 -209 221q-78 39 -326 158q-188 88 -188 248q0 237 336 237q100 0 180 -30q152 -60 152 -170q0 -25 -29 -52h-168q19 23 19 39q0 9 -7 25q-28 10 -147 18q-164 13 -164 -73q0 -52 195 -138l161 -73 q375 -170 375 -394q0 -274 -479 -274h-150q-243 0 -313 23q-162 47 -172 202zM176 233q6 -73 303 -67q-4 135 -30 164q-41 39 -119 39q-64 0 -109 -35q-51 -41 -45 -101z" />
<glyph unicode="&#x1090;" horiz-adv-x="1247" d="M6 563q0 246 158 403.5t405 157.5q250 0 405.5 -155.5t155.5 -405.5v-1156h-172v1156q0 166 -111.5 279.5t-277.5 113.5q-170 0 -281.5 -112.5t-111.5 -280.5v-12q64 14 137 14q179 0 314 -104q147 -113 147 -285q0 -196 -178 -182q-12 2 -70 6q-247 23 -383.5 169 t-136.5 394zM209 422q8 -35 35 -68q137 -194 288 -194q33 0 62 16l8 8q6 6 6 17q0 118 -123 188q-108 60 -233 47z" />
<glyph unicode="&#x1091;" horiz-adv-x="2455" d="M-4 563q0 252 157.5 406.5t411.5 154.5q246 0 422 -184q60 104 174 104q111 0 178 -106q168 186 418 186q254 0 413 -154.5t159 -406.5q0 -330 -363 -534l-86 147q281 156 281 387q0 172 -115 282.5t-289 110.5q-166 0 -276.5 -113.5t-110.5 -279.5v-86h-2v-207 q0 -90 -58.5 -155.5t-148.5 -65.5t-147.5 65.5t-57.5 155.5v338q-20 154 -127.5 251t-263.5 97q-174 0 -286.5 -110.5t-112.5 -282.5q0 -235 287 -387l-84 -151l-74 36q-299 150 -299 502zM373 -448q0 182 118.5 301t301.5 125q182 8 303 -118t118 -308l-4 -154 q0 -43 68 -67q59 8 59 69v314q0 106 66.5 181t173.5 75h412v-139l-410 4q-98 -45 -98 -115v-315q0 -211 -211 -203q-209 8 -209 203v149q0 121 -74 199t-194 78q-121 0 -195 -76t-76 -197q-2 -141 135 -233l-106 -115q-178 129 -178 342zM1124 270q0 -45 37 -45q35 0 35 45 v553q0 47 -35 47q-37 0 -37 -47v-553z" />
<glyph unicode="&#x1092;" horiz-adv-x="1222" d="M4 563q0 246 156.5 403.5t404.5 157.5q328 0 529 -362l-144 -80q-157 274 -385 274q-170 0 -279.5 -112.5t-109.5 -280.5q0 -170 109.5 -281.5t279.5 -111.5q228 0 385 272l144 -80l-37 -75q-64 -133 -202 -212t-290 -79q-248 0 -404.5 159.5t-156.5 407.5zM6 -626 q0 209 238 209h57l25 -166q-119 0 -148 -41q2 -14 23 -27q41 -10 86 -10h524q115 0 115 115v364q-178 -69 -369 -69h-4q-274 0 -494 186l80 151q17 -8 37 -25q168 -138 375 -138h2q65 0 176 16q131 18 148 49q61 30 112 30q103 0 103 -165v-455q2 -14 2 -28 q0 -78 -59.5 -138.5t-137.5 -60.5h-664q-227 0 -227 199v4z" />
<glyph unicode="&#x1093;" d="M-1466 -571l135 82q119 -190 266 -190q109 0 187 61.5t78 165.5v47q0 103 -82 172q-76 64 -183 64q-122 0 -254 -160l-122 96q176 217 376 217q207 0 342 -168q129 168 340 168q191 0 306.5 -109.5t115.5 -297.5q0 -189 -115.5 -299.5t-306.5 -110.5q-75 0 -221 53 l56 148q116 -43 165 -43q113 0 185.5 70.5t72.5 181.5q0 110 -72.5 182t-185.5 72q-104 0 -178 -62q-80 -65 -80 -168v-24q0 -189 -116.5 -300.5t-307.5 -111.5q-237 0 -362 199z" />
<glyph unicode="&#x1094;" d="M-440 -331q0 92 60 153.5t153 61.5q92 0 154.5 -61.5t62.5 -153.5t-62.5 -153.5t-154.5 -61.5q-91 0 -152 62.5t-61 152.5zM-293 -331q0 -68 66 -68q69 0 69 68q0 67 -69 67q-66 0 -66 -67z" />
<glyph unicode="&#x1095;" horiz-adv-x="595" d="M50 -331q0 92 58 153.5t150 61.5q93 0 154 -61.5t61 -153.5q0 -90 -62 -152.5t-153 -62.5q-90 0 -149 62.5t-59 152.5zM191 -331q0 -68 67 -68q72 0 72 68q0 67 -72 67q-67 0 -67 -67z" />
<glyph unicode="&#x1096;" d="M-1393 -263q0 105 110 169.5t288 64.5q214 0 338 -109q121 109 337 109q175 0 285.5 -65t110.5 -169t-111 -169.5t-285 -65.5q-79 0 -170 23l45 64q81 -15 125 -15q122 0 200.5 45.5t78.5 117.5q0 69 -80.5 116t-198.5 47q-121 0 -197 -45.5t-76 -117.5v-8l-4 -2 q-8 -104 -116.5 -164.5t-281.5 -60.5q-174 0 -286 65.5t-112 169.5zM-1273 -263q0 -72 78.5 -117.5t199.5 -45.5q118 0 195.5 45.5t77.5 117.5q0 71 -77.5 117t-195.5 46q-121 0 -199.5 -46t-78.5 -117zM-632 -675q0 76 85 126.5t210 50.5q126 0 212 -50.5t86 -126.5 q0 -74 -86 -125.5t-212 -51.5q-124 0 -209.5 51.5t-85.5 125.5zM-518 -675q0 -46 51.5 -77t129.5 -31q81 0 133 30t52 78t-52 79.5t-133 31.5q-79 0 -130 -31.5t-51 -79.5z" />
<glyph unicode="&#x1097;" horiz-adv-x="1216" d="M0 563q0 250 155.5 405.5t407.5 155.5q328 0 531 -362l-150 -86q-156 280 -381 280q-168 0 -277.5 -113.5t-109.5 -279.5q0 -172 108.5 -282.5t278.5 -110.5h31q8 -4 20 -4q80 37 234 78q221 10 221 -185q0 -83 -39 -136l-123 -105q-108 -67 -360 -67h-6q-127 0 -215 49 q-13 -6 -13 -15q0 -43 238 -90q207 -8 455 121q14 6 30 6q54 0 58 -86q-2 -24 -2 -135v-237q0 -56 45 -50h98l-2 -161h-182q-123 0 -123 143v287q-107 -62 -295 -62q-51 0 -117 13q-197 36 -248 69q-159 55 -159 195q0 73 48 123.5t124 50.5q41 0 94 -21q33 0 172 -28 q276 0 338 118q8 8 12 14q0 17 -27 17q-28 0 -135 -54q-200 -24 -231 -24q-232 0 -373 172q-131 160 -131 397zM375 -602q0 49 60 79.5t157 30.5q126 0 205 -71l-58 -16q-60 54 -147 54q-65 0 -107 -22t-42 -55t42 -55t107 -22h12h8q30 7 90 15q85 2 85 -36q0 -17 -15 -27 l-47 -21q-42 -13 -139 -13h-2q-49 0 -83 10q-5 -1 -5 -3q0 -9 91 -18q80 -1 176 24q5 1 11 1q21 0 23 -17q-1 -4 -1 -26v-47q0 -11 17 -10h38l-1 -31h-70q-47 0 -47 28v56q-42 -12 -114 -12q-20 0 -45 3q-76 7 -96 13q-61 11 -61 38q0 15 18.5 24.5t47.5 9.5q16 0 37 -4 q12 0 66 -5q106 0 130 23q3 2 5 3q0 3 -11 3t-52 -10q-77 -5 -89 -5q-89 0 -143 34q-51 31 -51 77z" />
<glyph unicode="&#x2000;" horiz-adv-x="982" />
<glyph unicode="&#x2001;" horiz-adv-x="1964" />
<glyph unicode="&#x2002;" horiz-adv-x="982" />
<glyph unicode="&#x2003;" horiz-adv-x="1964" />
<glyph unicode="&#x2004;" horiz-adv-x="654" />
<glyph unicode="&#x2005;" horiz-adv-x="491" />
<glyph unicode="&#x2006;" horiz-adv-x="327" />
<glyph unicode="&#x2007;" horiz-adv-x="327" />
<glyph unicode="&#x2008;" horiz-adv-x="245" />
<glyph unicode="&#x2009;" horiz-adv-x="392" />
<glyph unicode="&#x200a;" horiz-adv-x="109" />
<glyph unicode="&#x202f;" horiz-adv-x="392" />
<glyph unicode="&#x205f;" horiz-adv-x="491" />
<glyph unicode="&#xe000;" horiz-adv-x="1115" d="M0 0v1115h1115v-1115h-1115z" />
</font>
</defs>
</svg>
